<svg width="135" height="61" viewBox="0 0 135 61" fill="none" xmlns="http://www.w3.org/2000/svg">
<path d="M10.0781 14.4531V44.7344H25.9688V49H4.35938V14.4531H10.0781ZM43.8281 22.4219C45.5469 22.5156 47.1094 22.9375 48.5156 23.6875C49.9219 24.4062 51.0938 25.375 52.0312 26.5938C53 27.7812 53.75 29.1719 54.2812 30.7656C54.8125 32.3594 55.0781 34.0625 55.0781 35.875C55.0781 37.6875 54.7969 39.3906 54.2344 40.9844C53.7031 42.5469 52.9531 43.9219 51.9844 45.1094C51.0156 46.2656 49.8281 47.2031 48.4219 47.9219C47.0156 48.6406 45.4844 49.0625 43.8281 49.1875V44.6875C45.3906 44.3438 46.6562 43.3594 47.625 41.7344C48.625 40.1094 49.125 38.1562 49.125 35.875C49.125 34.7188 49 33.6406 48.75 32.6406C48.5312 31.6094 48.1875 30.6875 47.7188 29.875C47.25 29.0625 46.6875 28.3906 46.0312 27.8594C45.375 27.3281 44.6406 26.9844 43.8281 26.8281V22.4219ZM30.75 35.7812C30.75 33.9688 31.0156 32.2812 31.5469 30.7188C32.0781 29.1562 32.8281 27.7969 33.7969 26.6406C34.7969 25.4531 35.9844 24.5 37.3594 23.7812C38.7344 23.0625 40.25 22.625 41.9062 22.4688V26.8281C40.3438 27.1719 39.0938 28.1562 38.1562 29.7812C37.2188 31.4062 36.75 33.3594 36.75 35.6406C36.75 36.7969 36.8594 37.8906 37.0781 38.9219C37.3281 39.9531 37.6719 40.875 38.1094 41.6875C38.5469 42.5 39.0781 43.1719 39.7031 43.7031C40.3594 44.2344 41.0938 44.5625 41.9062 44.6875V49.1875C40.1875 49.0625 38.6406 48.6406 37.2656 47.9219C35.8906 47.1719 34.7188 46.2031 33.75 45.0156C32.7812 43.8281 32.0312 42.4375 31.5 40.8438C31 39.25 30.75 37.5625 30.75 35.7812ZM72.0469 49.2344C70.2969 49.2344 68.7656 48.8594 67.4531 48.1094C66.1406 47.3281 65.0469 46.2969 64.1719 45.0156C63.2969 43.7344 62.6562 42.2656 62.25 40.6094C61.8438 38.9531 61.6406 37.2188 61.6406 35.4062C61.6406 32.9688 61.9688 30.9219 62.625 29.2656C63.3125 27.6094 64.1719 26.2656 65.2031 25.2344C66.2656 24.1719 67.4375 23.4219 68.7188 22.9844C70.0312 22.5469 71.3125 22.3281 72.5625 22.3281C73.5312 22.3281 74.4531 22.4375 75.3281 22.6562C76.2031 22.875 77 23.1875 77.7188 23.5938V28.5625C77.2188 28 76.625 27.5469 75.9375 27.2031C75.2812 26.8594 74.5625 26.6875 73.7812 26.6875C72.8438 26.6875 71.9844 26.9375 71.2031 27.4375C70.4531 27.9062 69.8125 28.5469 69.2812 29.3594C68.75 30.1719 68.3438 31.125 68.0625 32.2188C67.7812 33.3125 67.6406 34.4688 67.6406 35.6875C67.6406 36.9375 67.7812 38.125 68.0625 39.25C68.375 40.3438 68.7969 41.2969 69.3281 42.1094C69.8906 42.9219 70.5469 43.5781 71.2969 44.0781C72.0781 44.5469 72.9375 44.7812 73.875 44.7812C74.6562 44.7812 75.3594 44.625 75.9844 44.3125C76.6094 43.9688 77.1875 43.5312 77.7188 43V47.875C76.9688 48.25 76.1094 48.5781 75.1406 48.8594C74.1719 49.1094 73.1406 49.2344 72.0469 49.2344ZM85.3125 22.5625L85.2656 49C85.1406 50.9062 84.75 52.5312 84.0938 53.875C83.4688 55.2188 82.6562 56.3281 81.6562 57.2031C80.6562 58.0781 79.5 58.7031 78.1875 59.0781C76.875 59.4531 75.4688 59.6406 73.9688 59.6406C72.2188 59.6406 70.4844 59.3281 68.7656 58.7031C67.0781 58.1094 65.6719 57.0938 64.5469 55.6562L67.8281 52.4219C68.1406 52.9531 68.5312 53.3906 69 53.7344C69.5 54.0781 70 54.3438 70.5 54.5312C71.0312 54.7188 71.5469 54.8438 72.0469 54.9062C72.5781 55 73.0469 55.0469 73.4531 55.0469C75.3906 55.0469 76.9062 54.4844 78 53.3594C79.0938 52.2344 79.6406 50.3125 79.6406 47.5938V25.2344L80.25 22.5625H85.3125ZM100.125 49H94.4062V22.5625H100.125V49ZM100.641 14.125C100.641 15.0625 100.312 15.8594 99.6562 16.5156C99 17.1406 98.2031 17.4531 97.2656 17.4531C96.3281 17.4531 95.5312 17.125 94.875 16.4688C94.25 15.8125 93.9375 15.0313 93.9375 14.125C93.9375 13.1875 94.2656 12.3906 94.9219 11.7344C95.5781 11.0781 96.3594 10.75 97.2656 10.75C98.2031 10.75 99 11.0781 99.6562 11.7344C100.312 12.3906 100.641 13.1875 100.641 14.125ZM113.156 22.5625L113.766 25.2344V49H108.094V22.5625H113.156ZM127.781 25.4688C128.312 26 128.719 26.625 129 27.3438C129.312 28.0312 129.531 28.7656 129.656 29.5469C129.812 30.2969 129.906 31.0625 129.938 31.8438C129.969 32.625 129.984 33.3906 129.984 34.1406V48.0625V49H124.266V34.6094C124.266 33.5469 124.219 32.5312 124.125 31.5625C124.031 30.5938 123.812 29.7344 123.469 28.9844C123.125 28.2344 122.656 27.6562 122.062 27.25C121.469 26.8125 120.641 26.5938 119.578 26.5938C119.141 26.5938 118.547 26.6719 117.797 26.8281C117.078 26.9531 116.375 27.1719 115.688 27.4844V23.875C116.531 23.4375 117.438 23.0625 118.406 22.75C119.406 22.4375 120.375 22.2812 121.312 22.2812C122.719 22.2812 123.906 22.5781 124.875 23.1719C125.844 23.7344 126.812 24.5 127.781 25.4688Z" fill="white"/>
</svg>
