<svg xmlns="http://www.w3.org/2000/svg" version="1.1" xmlns:xlink="http://www.w3.org/1999/xlink" xmlns:svgjs="http://svgjs.dev/svgjs" width="1500" height="185" viewBox="0 0 1500 185"><g transform="matrix(1,0,0,1,-0.9090909090909918,-0.4620983621795034)"><svg viewBox="0 0 396 49" data-background-color="#293040" preserveAspectRatio="xMidYMid meet" height="185" width="1500" xmlns="http://www.w3.org/2000/svg" xmlns:xlink="http://www.w3.org/1999/xlink"><g id="tight-bounds" transform="matrix(1,0,0,1,0.2400000000000091,0.12239362025295009)"><svg viewBox="0 0 395.52 48.75521275949411" height="48.75521275949411" width="395.52"><g><svg viewBox="0 0 493.8761140754257 60.879437243576966" height="48.75521275949411" width="395.52"><g><rect width="5.462856197218913" height="60.879437243576966" x="78.59258720485884" y="0" fill="#d5b263" opacity="1" stroke-width="0" stroke="transparent" fill-opacity="1" class="rect-qz-0" data-fill-palette-color="primary" rx="1%" id="qz-0" data-palette-color="#d5b263"></rect></g><g transform="matrix(1,0,0,1,98.3561140754257,0.1514413861780497)"><svg viewBox="0 0 395.52 60.57655447122087" height="60.57655447122087" width="395.52"><g id="textblocktransform"><svg viewBox="0 0 395.52 60.57655447122087" height="60.57655447122087" width="395.52" id="textblock"><g><svg viewBox="0 0 395.52 60.57655447122087" height="60.57655447122087" width="395.52"><g transform="matrix(1,0,0,1,0,0)"><svg width="395.52" viewBox="2.75 -38.15 251.03 38.449999999999996" height="60.57655447122087" data-palette-color="#d5b263"><path d="M14.45 0.25L14.45 0.25Q10.95 0.3 8.68-0.9 6.4-2.1 5.1-4.45 3.8-6.8 3.28-10.33 2.75-13.85 2.75-18.5L2.75-18.5Q2.75-23.1 3.33-26.6 3.9-30.1 5.3-32.45 6.7-34.8 9.22-35.98 11.75-37.15 15.55-37.15L15.55-37.15Q17.7-37.15 19.8-37 21.9-36.85 23.88-36.52 25.85-36.2 27.6-35.8L27.6-35.8 27.6-31.95Q26.6-32.1 24.8-32.25 23-32.4 20.83-32.52 18.65-32.65 16.4-32.65L16.4-32.65Q12.9-32.65 11.05-31.28 9.2-29.9 8.47-26.78 7.75-23.65 7.75-18.45L7.75-18.45Q7.75-14.3 8.15-11.58 8.55-8.85 9.45-7.28 10.35-5.7 11.93-5.03 13.5-4.35 15.9-4.35L15.9-4.35Q18.2-4.35 20.48-4.9 22.75-5.45 24.35-6L24.35-6 24.35-15.75 16.15-15.75 16.15-19.6Q17.15-19.75 18.53-19.85 19.9-19.95 21.43-20.03 22.95-20.1 24.5-20.1L24.5-20.1Q25.9-20.1 27.08-20.05 28.25-20 29.2-19.9L29.2-19.9 29.2 0 25.45 0 24.7-2.55Q23.05-1.7 20.3-0.75 17.55 0.2 14.45 0.25ZM41.35 0L36.35 0 36.35-26.75 40.2-26.75 41.35-22.25Q43.05-24.3 45.15-25.7 47.25-27.1 50.05-27.1L50.05-27.1Q50.7-27.1 51.3-27.03 51.9-26.95 52.45-26.8L52.45-26.8 52.45-21.65Q51.75-21.75 51-21.83 50.25-21.9 49.45-21.9L49.45-21.9Q47.75-21.9 46.4-21.5 45.05-21.1 43.82-20.28 42.6-19.45 41.35-18.25L41.35-18.25 41.35 0ZM68.05 0.3L68.05 0.3Q65 0.3 62.77-0.35 60.55-1 59.1-2.53 57.65-4.05 56.95-6.7 56.25-9.35 56.25-13.4L56.25-13.4Q56.25-17.6 56.95-20.28 57.65-22.95 59.1-24.45 60.55-25.95 62.8-26.53 65.05-27.1 68.05-27.1L68.05-27.1Q71.05-27.1 73.3-26.5 75.55-25.9 77-24.4 78.45-22.9 79.15-20.23 79.85-17.55 79.85-13.4L79.85-13.4Q79.85-9.3 79.15-6.63 78.45-3.95 77.02-2.45 75.6-0.95 73.35-0.33 71.1 0.3 68.05 0.3ZM68.05-3.8L68.05-3.8Q69.7-3.8 70.97-4.1 72.25-4.4 73.1-5.38 73.95-6.35 74.4-8.3 74.85-10.25 74.85-13.45L74.85-13.45Q74.85-16.65 74.4-18.57 73.95-20.5 73.1-21.45 72.25-22.4 70.97-22.73 69.7-23.05 68.05-23.05L68.05-23.05Q66.35-23.05 65.07-22.73 63.8-22.4 62.97-21.45 62.15-20.5 61.72-18.57 61.3-16.65 61.3-13.45L61.3-13.45Q61.3-10.25 61.72-8.3 62.15-6.35 62.97-5.38 63.8-4.4 65.07-4.1 66.35-3.8 68.05-3.8ZM96.84 0.3L96.84 0.3Q93.79 0.3 91.57-0.35 89.34-1 87.89-2.53 86.44-4.05 85.74-6.7 85.04-9.35 85.04-13.4L85.04-13.4Q85.04-17.6 85.74-20.28 86.44-22.95 87.89-24.45 89.34-25.95 91.59-26.53 93.84-27.1 96.84-27.1L96.84-27.1Q99.84-27.1 102.09-26.5 104.34-25.9 105.79-24.4 107.24-22.9 107.94-20.23 108.64-17.55 108.64-13.4L108.64-13.4Q108.64-9.3 107.94-6.63 107.24-3.95 105.82-2.45 104.39-0.95 102.14-0.33 99.89 0.3 96.84 0.3ZM96.84-3.8L96.84-3.8Q98.49-3.8 99.77-4.1 101.04-4.4 101.89-5.38 102.74-6.35 103.19-8.3 103.64-10.25 103.64-13.45L103.64-13.45Q103.64-16.65 103.19-18.57 102.74-20.5 101.89-21.45 101.04-22.4 99.77-22.73 98.49-23.05 96.84-23.05L96.84-23.05Q95.14-23.05 93.87-22.73 92.59-22.4 91.77-21.45 90.94-20.5 90.52-18.57 90.09-16.65 90.09-13.45L90.09-13.45Q90.09-10.25 90.52-8.3 90.94-6.35 91.77-5.38 92.59-4.4 93.87-4.1 95.14-3.8 96.84-3.8ZM126.59 0L120.79 0 111.09-26.75 116.24-26.75 123.79-4.65 131.49-26.75 136.64-26.75 126.59 0ZM150.54 0.3L150.54 0.3Q146.29 0.3 143.76-0.95 141.24-2.2 140.16-5.18 139.09-8.15 139.09-13.4L139.09-13.4Q139.09-18.75 140.16-21.73 141.24-24.7 143.74-25.9 146.24-27.1 150.49-27.1L150.49-27.1Q154.19-27.1 156.46-26.33 158.74-25.55 159.81-23.58 160.89-21.6 160.89-18.1L160.89-18.1Q160.89-15.65 159.91-14.2 158.94-12.75 157.16-12.1 155.39-11.45 152.94-11.45L152.94-11.45 144.09-11.45Q144.14-8.55 144.76-6.83 145.39-5.1 147.01-4.33 148.64-3.55 151.79-3.55L151.79-3.55 160.14-3.55 160.14-0.55Q157.99-0.25 155.74 0.03 153.49 0.3 150.54 0.3ZM144.04-14.6L144.04-14.6 152.49-14.6Q154.49-14.6 155.44-15.35 156.39-16.1 156.39-18.1L156.39-18.1Q156.39-20.1 155.81-21.25 155.24-22.4 153.94-22.9 152.64-23.4 150.49-23.4L150.49-23.4Q148.04-23.4 146.61-22.65 145.19-21.9 144.61-20 144.04-18.1 144.04-14.6ZM172.19 0L167.14 0 167.14-36.85 172.19-36.85 172.19-20.3 189.24-20.3 189.24-36.85 194.24-36.85 194.24 0 189.24 0 189.24-15.8 172.19-15.8 172.19 0ZM209.23 0.3L209.23 0.3Q205.48 0.3 203.41-1.73 201.33-3.75 201.33-7.9L201.33-7.9 201.33-26.75 206.33-26.75 206.33-9.25Q206.33-6.25 207.71-5.2 209.08-4.15 211.58-4.15L211.58-4.15Q213.58-4.15 215.41-4.78 217.23-5.4 218.98-6.5L218.98-6.5 218.98-26.75 223.98-26.75 223.98 0 219.98 0 218.98-2.85Q217.03-1.6 214.51-0.65 211.98 0.3 209.23 0.3ZM244.48 0.3L244.48 0.3Q242.63 0.3 241.06-0.15 239.48-0.6 238.21-1.28 236.93-1.95 235.88-2.65L235.88-2.65 234.98 0 230.88 0 230.88-38.15 235.88-38.15 235.88-24.5Q237.73-25.5 240.01-26.3 242.28-27.1 244.23-27.1L244.23-27.1Q247.53-27.1 249.63-25.73 251.73-24.35 252.76-21.3 253.78-18.25 253.78-13.15L253.78-13.15Q253.78-8.9 252.83-5.88 251.88-2.85 249.83-1.28 247.78 0.3 244.48 0.3ZM242.73-3.85L242.73-3.85Q244.68-3.85 246.01-4.83 247.33-5.8 248.06-7.93 248.78-10.05 248.78-13.4L248.78-13.4Q248.78-17.5 247.98-19.55 247.18-21.6 245.83-22.3 244.48-23 242.73-23L242.73-23Q240.73-23 239.11-22.43 237.48-21.85 235.88-21L235.88-21 235.88-5.75Q237.23-5.05 238.93-4.45 240.63-3.85 242.73-3.85Z" opacity="1" transform="matrix(1,0,0,1,0,0)" fill="#d5b263" class="wordmark-text-0" data-fill-palette-color="primary" id="text-0"></path></svg></g></svg></g></svg></g></svg></g><g transform="matrix(1,0,0,1,0,0.15144138617804614)"><svg viewBox="0 0 64.2919165315109 60.576554471220874" height="60.576554471220874" width="64.2919165315109"><g><svg xmlns="http://www.w3.org/2000/svg" xmlns:xlink="http://www.w3.org/1999/xlink" version="1.1" x="0" y="0" viewBox="2.4799999216699558 5 95.52000007833004 90" enable-background="new 0 0 100 100" xml:space="preserve" height="60.576554471220874" width="64.2919165315109" class="icon-icon-0" data-fill-palette-color="accent" id="icon-0"><g fill="#d5b263" data-fill-palette-color="accent"><g fill="#d5b263" data-fill-palette-color="accent"><path d="M95.03 5H33.45C32.208 5 30 6.242 30 7.485v46.399c0-0.843-4.157-1.279-6.623-1.279-11.689 0-20.897 9.509-20.897 21.195C2.479 85.488 12.053 95 23.74 95 35.429 95 45 85.488 45 73.801V40h38v13.882c-3-0.84-4.606-1.276-7.072-1.276-11.689 0-21.119 9.509-21.119 21.195C54.809 85.488 64.715 95 76.402 95 88.092 95 98 85.488 98 73.801V7.485C98 6.242 96.272 5 95.03 5zM93 73.801c0 9.207-7.6 16.697-16.809 16.697-9.204 0-16.751-7.49-16.751-16.697 0-9.206 7.463-16.696 16.669-16.696 2.92 0 5.789 0.778 8.332 2.251 0.695 0.405 1.644 0.405 2.342 0.005C87.481 58.957 88 58.213 88 57.41V35.908C88 34.663 86.798 35 85.558 35H42.923C41.681 35 40 34.663 40 35.908v37.893c0 9.207-7.153 16.697-16.359 16.697-9.209 0-16.53-7.49-16.53-16.697 0-9.206 7.574-16.696 16.783-16.696 2.918 0 5.844 0.778 8.388 2.251 0.696 0.405 1.226 0.405 1.921 0.005C34.899 58.957 35 58.213 35 57.41V10h58V73.801z" fill="#d5b263" data-fill-palette-color="accent"></path><path d="M88 17.248C88 16.007 86.992 15 85.749 15H42.251C41.008 15 40 16.007 40 17.248v10.504C40 28.993 41.008 30 42.251 30h43.498C86.992 30 88 28.993 88 27.752V17.248zM45 20h38v5H45V20z" fill="#d5b263" data-fill-palette-color="accent"></path></g></g></svg></g></svg></g></svg></g><defs></defs></svg><rect width="395.52" height="48.75521275949411" fill="none" stroke="none" visibility="hidden"></rect></g></svg></g></svg>