<svg width="210" height="61" viewBox="0 0 210 61" fill="none" xmlns="http://www.w3.org/2000/svg">
<path d="M4.21875 14.4531H9.84375V49H4.21875V14.4531ZM27.6562 49H21.7031L15.1875 36.4844C15.0938 36.4844 14.9844 36.5 14.8594 36.5312C14.7656 36.5312 14.6094 36.5312 14.3906 36.5312C14.1719 36.5312 13.8438 36.5312 13.4062 36.5312C13 36.5312 12.4531 36.5312 11.7656 36.5312V32.4062H14.9531C15.6406 32.4062 16.3281 32.2969 17.0156 32.0781C17.7031 31.8281 18.3281 31.4375 18.8906 30.9062C19.4531 30.375 19.9062 29.6406 20.25 28.7031C20.5938 27.7344 20.7656 26.5469 20.7656 25.1406C20.7656 24.5781 20.6875 23.9375 20.5312 23.2188C20.375 22.4688 20.0469 21.7656 19.5469 21.1094C19.0781 20.4219 18.4062 19.8594 17.5312 19.4219C16.6562 18.9531 15.5 18.7188 14.0625 18.7188H11.7656V14.4531H14.1562C15.625 14.4531 17.0781 14.6875 18.5156 15.1562C19.9531 15.625 21.2344 16.3281 22.3594 17.2656C23.5156 18.2031 24.4375 19.3438 25.125 20.6875C25.8438 22 26.2031 23.4844 26.2031 25.1406C26.2031 27.6406 25.625 29.7656 24.4688 31.5156C23.3125 33.2656 21.75 34.5625 19.7812 35.4062L27.6562 49ZM47.25 22.3281C48.9375 22.4844 50.4531 22.9375 51.7969 23.6875C53.1719 24.4375 54.3438 25.4062 55.3125 26.5938C56.2812 27.7812 57.0156 29.1406 57.5156 30.6719C58.0469 32.2031 58.3125 33.7969 58.3125 35.4531C58.3125 36.2031 58.2656 36.9531 58.1719 37.7031H42.0938V33.5781H52.9219C52.9219 32.7656 52.7812 31.9844 52.5 31.2344C52.25 30.4844 51.8594 29.7969 51.3281 29.1719C50.8281 28.5156 50.2344 27.9688 49.5469 27.5312C48.8594 27.0938 48.0938 26.8281 47.25 26.7344V22.3281ZM47.0625 44.5938C47.4062 44.5938 47.8281 44.5625 48.3281 44.5C48.8594 44.4062 49.4062 44.2656 49.9688 44.0781C50.5625 43.8594 51.1406 43.5938 51.7031 43.2812C52.2969 42.9688 52.8125 42.5938 53.25 42.1562L55.3125 45.2969C54.2812 46.5781 53.0781 47.5469 51.7031 48.2031C50.3281 48.8594 48.5781 49.1875 46.4531 49.1875C44.7344 49.1875 43.125 48.8438 41.625 48.1562C40.125 47.4375 38.8438 46.4688 37.7812 45.25C36.7188 44.0312 35.875 42.6094 35.25 40.9844C34.625 39.3594 34.3125 37.6094 34.3125 35.7344C34.3125 33.9531 34.5938 32.2656 35.1562 30.6719C35.75 29.0781 36.5469 27.6875 37.5469 26.5C38.5469 25.2812 39.7031 24.2969 41.0156 23.5469C42.3594 22.7969 43.7969 22.375 45.3281 22.2812V26.7812C44.1719 27 43.2188 27.4688 42.4688 28.1875C41.7188 28.9062 41.125 29.7344 40.6875 30.6719C40.2812 31.5781 39.9844 32.5156 39.7969 33.4844C39.6406 34.4531 39.5625 35.2812 39.5625 35.9688C39.5625 37.1875 39.7031 38.3281 39.9844 39.3906C40.2969 40.4219 40.7656 41.3281 41.3906 42.1094C42.0156 42.8594 42.7812 43.4688 43.6875 43.9375C44.625 44.375 45.75 44.5938 47.0625 44.5938ZM75.7031 49.2344C73.9531 49.2344 72.4219 48.8594 71.1094 48.1094C69.7969 47.3281 68.7031 46.2969 67.8281 45.0156C66.9531 43.7344 66.3125 42.2656 65.9062 40.6094C65.5 38.9531 65.2969 37.2188 65.2969 35.4062C65.2969 32.9688 65.625 30.9219 66.2812 29.2656C66.9688 27.6094 67.8281 26.2656 68.8594 25.2344C69.9219 24.1719 71.0938 23.4219 72.375 22.9844C73.6875 22.5469 74.9688 22.3281 76.2188 22.3281C77.1875 22.3281 78.1094 22.4375 78.9844 22.6562C79.8594 22.875 80.6562 23.1875 81.375 23.5938V28.5625C80.875 28 80.2812 27.5469 79.5938 27.2031C78.9375 26.8594 78.2188 26.6875 77.4375 26.6875C76.5 26.6875 75.6406 26.9375 74.8594 27.4375C74.1094 27.9062 73.4688 28.5469 72.9375 29.3594C72.4062 30.1719 72 31.125 71.7188 32.2188C71.4375 33.3125 71.2969 34.4688 71.2969 35.6875C71.2969 36.9375 71.4375 38.125 71.7188 39.25C72.0312 40.3438 72.4531 41.2969 72.9844 42.1094C73.5469 42.9219 74.2031 43.5781 74.9531 44.0781C75.7344 44.5469 76.5938 44.7812 77.5312 44.7812C78.3125 44.7812 79.0156 44.625 79.6406 44.3125C80.2656 43.9688 80.8438 43.5312 81.375 43V47.875C80.625 48.25 79.7656 48.5781 78.7969 48.8594C77.8281 49.1094 76.7969 49.2344 75.7031 49.2344ZM88.9688 22.5625L88.9219 49C88.7969 50.9062 88.4062 52.5312 87.75 53.875C87.125 55.2188 86.3125 56.3281 85.3125 57.2031C84.3125 58.0781 83.1562 58.7031 81.8438 59.0781C80.5312 59.4531 79.125 59.6406 77.625 59.6406C75.875 59.6406 74.1406 59.3281 72.4219 58.7031C70.7344 58.1094 69.3281 57.0938 68.2031 55.6562L71.4844 52.4219C71.7969 52.9531 72.1875 53.3906 72.6562 53.7344C73.1562 54.0781 73.6562 54.3438 74.1562 54.5312C74.6875 54.7188 75.2031 54.8438 75.7031 54.9062C76.2344 55 76.7031 55.0469 77.1094 55.0469C79.0469 55.0469 80.5625 54.4844 81.6562 53.3594C82.75 52.2344 83.2969 50.3125 83.2969 47.5938V25.2344L83.9062 22.5625H88.9688ZM103.781 49H98.0625V22.5625H103.781V49ZM104.297 14.125C104.297 15.0625 103.969 15.8594 103.312 16.5156C102.656 17.1406 101.859 17.4531 100.922 17.4531C99.9844 17.4531 99.1875 17.125 98.5312 16.4688C97.9062 15.8125 97.5938 15.0313 97.5938 14.125C97.5938 13.1875 97.9219 12.3906 98.5781 11.7344C99.2344 11.0781 100.016 10.75 100.922 10.75C101.859 10.75 102.656 11.0781 103.312 11.7344C103.969 12.3906 104.297 13.1875 104.297 14.125ZM111.141 30.1094C111.141 28.9219 111.359 27.8594 111.797 26.9219C112.234 25.9531 112.844 25.1406 113.625 24.4844C114.406 23.7969 115.281 23.2656 116.25 22.8906C117.25 22.4844 118.281 22.2344 119.344 22.1406V26.8281C118.531 26.9844 117.891 27.3125 117.422 27.8125C116.984 28.3125 116.766 29.0156 116.766 29.9219C116.766 30.6719 117 31.2812 117.469 31.75C117.969 32.1875 118.594 32.5781 119.344 32.9219V37.9375C118.812 37.7812 118.266 37.6094 117.703 37.4219C117.172 37.2031 116.641 36.9688 116.109 36.7188C114.453 35.8438 113.203 34.9219 112.359 33.9531C111.547 32.9844 111.141 31.7031 111.141 30.1094ZM126.797 28.1406C125.953 27.7031 125.047 27.375 124.078 27.1562C123.141 26.9375 122.203 26.7969 121.266 26.7344V22.0938C122.672 22.1562 123.969 22.3594 125.156 22.7031C126.344 23.0156 127.5 23.5312 128.625 24.25L126.797 28.1406ZM113.625 43.0938C114.25 43.5312 114.984 43.9375 115.828 44.3125C116.703 44.6875 117.797 44.875 119.109 44.875H119.344V49.2344C118.562 49.2344 117.844 49.2031 117.188 49.1406C116.531 49.1094 115.875 49.0156 115.219 48.8594C114.594 48.6719 113.953 48.4219 113.297 48.1094C112.641 47.7969 111.953 47.3906 111.234 46.8906L113.625 43.0938ZM121.266 33.6719C122.203 33.9844 123.156 34.3281 124.125 34.7031C125.094 35.0781 125.969 35.5469 126.75 36.1094C127.562 36.6719 128.219 37.375 128.719 38.2188C129.25 39.0312 129.516 40.0625 129.516 41.3125C129.516 42.5312 129.297 43.5938 128.859 44.5C128.422 45.4062 127.828 46.1875 127.078 46.8438C126.359 47.5 125.5 48.0156 124.5 48.3906C123.5 48.7656 122.422 49.0156 121.266 49.1406V44.6875C122.328 44.5 123.141 44.1719 123.703 43.7031C124.297 43.2031 124.594 42.5469 124.594 41.7344C124.594 40.9219 124.266 40.2969 123.609 39.8594C122.984 39.3906 122.203 38.9844 121.266 38.6406V33.6719ZM144.422 40.9844C144.422 42.0469 144.562 42.875 144.844 43.4688C145.125 44.0625 145.516 44.5156 146.016 44.8281C146.547 45.1406 147.125 45.3438 147.75 45.4375C148.406 45.5 149.094 45.5312 149.812 45.5312V49C149.406 49.0625 149 49.1094 148.594 49.1406C148.25 49.1719 147.828 49.1875 147.328 49.1875C146.859 49.2188 146.391 49.2344 145.922 49.2344C145.453 49.2344 144.969 49.2188 144.469 49.1875C144 49.1562 143.594 49.1094 143.25 49.0469C142.188 48.8594 141.359 48.4062 140.766 47.6875C140.172 46.9375 139.719 46.125 139.406 45.25C139.125 44.3438 138.938 43.4688 138.844 42.625C138.781 41.7812 138.75 41.125 138.75 40.6562V26.4062H135.281V22.5625H138.75V15.0625H144.422V22.5625H148.641V26.4062H144.422V40.9844ZM168.75 22.3281C170.438 22.4844 171.953 22.9375 173.297 23.6875C174.672 24.4375 175.844 25.4062 176.812 26.5938C177.781 27.7812 178.516 29.1406 179.016 30.6719C179.547 32.2031 179.812 33.7969 179.812 35.4531C179.812 36.2031 179.766 36.9531 179.672 37.7031H163.594V33.5781H174.422C174.422 32.7656 174.281 31.9844 174 31.2344C173.75 30.4844 173.359 29.7969 172.828 29.1719C172.328 28.5156 171.734 27.9688 171.047 27.5312C170.359 27.0938 169.594 26.8281 168.75 26.7344V22.3281ZM168.562 44.5938C168.906 44.5938 169.328 44.5625 169.828 44.5C170.359 44.4062 170.906 44.2656 171.469 44.0781C172.062 43.8594 172.641 43.5938 173.203 43.2812C173.797 42.9688 174.312 42.5938 174.75 42.1562L176.812 45.2969C175.781 46.5781 174.578 47.5469 173.203 48.2031C171.828 48.8594 170.078 49.1875 167.953 49.1875C166.234 49.1875 164.625 48.8438 163.125 48.1562C161.625 47.4375 160.344 46.4688 159.281 45.25C158.219 44.0312 157.375 42.6094 156.75 40.9844C156.125 39.3594 155.812 37.6094 155.812 35.7344C155.812 33.9531 156.094 32.2656 156.656 30.6719C157.25 29.0781 158.047 27.6875 159.047 26.5C160.047 25.2812 161.203 24.2969 162.516 23.5469C163.859 22.7969 165.297 22.375 166.828 22.2812V26.7812C165.672 27 164.719 27.4688 163.969 28.1875C163.219 28.9062 162.625 29.7344 162.188 30.6719C161.781 31.5781 161.484 32.5156 161.297 33.4844C161.141 34.4531 161.062 35.2812 161.062 35.9688C161.062 37.1875 161.203 38.3281 161.484 39.3906C161.797 40.4219 162.266 41.3281 162.891 42.1094C163.516 42.8594 164.281 43.4688 165.188 43.9375C166.125 44.375 167.25 44.5938 168.562 44.5938ZM192.656 22.5625L193.266 25.2812V39.625V39.7188V49H187.594V22.5625H192.656ZM195.188 23.7344C195.969 23.2969 196.906 22.9688 198 22.75C199.094 22.5 200.578 22.375 202.453 22.375V28.2812C201.578 28.0312 200.516 27.8906 199.266 27.8594C198.578 27.8594 197.875 27.9219 197.156 28.0469C196.469 28.1406 195.812 28.2969 195.188 28.5156V23.7344Z" fill="white"/>
</svg>
